<svg width="47" height="46" viewBox="0 0 47 46" fill="none" xmlns="http://www.w3.org/2000/svg">
<path d="M39.3739 28.5682L33.3401 14.8094C32.2412 12.2908 30.6027 10.8623 28.7328 10.7683C26.8821 10.6743 25.0893 11.9336 23.7207 14.3395L20.058 20.749C19.2869 22.1023 18.188 22.9105 16.9929 23.0045C15.7784 23.1173 14.5639 22.497 13.5808 21.2753L13.1567 20.749C11.788 19.0761 10.0916 18.2679 8.35659 18.4371C6.62163 18.6062 5.13727 19.7716 4.15412 21.67L0.81914 28.1547C-0.376057 30.5042 -0.260393 33.2296 1.14685 35.4475C2.5541 37.6655 5.00233 39 7.68188 39H32.2798C34.863 39 37.2726 37.7407 38.6992 35.6355C40.1642 33.5303 40.3956 30.8801 39.3739 28.5682ZM10.3634 12.7062C12.0914 12.7062 13.7488 12.0368 14.9707 10.8454C16.1926 9.65395 16.8791 8.03802 16.8791 6.35308C16.8791 4.66814 16.1926 3.05221 14.9707 1.86077C13.7488 0.66934 12.0914 0 10.3634 0C8.63528 0 6.97797 0.66934 5.75603 1.86077C4.53409 3.05221 3.84761 4.66814 3.84761 6.35308C3.84761 8.03802 4.53409 9.65395 5.75603 10.8454C6.97797 12.0368 8.63528 12.7062 10.3634 12.7062Z" fill="#909090"/>
<path d="M41.4806 40.1398C44.452 37.2785 44.452 32.5965 41.4806 29.7352C38.5093 26.8739 33.6472 26.8739 30.6758 29.7352C27.7045 32.5965 27.7045 37.2785 30.6758 40.1398C33.6472 43.0011 38.5093 43.0011 41.4806 40.1398ZM36.0782 37.882V31.993V37.882ZM39.136 34.9375H33.0205H39.136Z" fill="#3EABF8"/>
<path d="M36.0782 37.882V31.993M39.136 34.9375H33.0205M41.4806 40.1398C44.452 37.2785 44.452 32.5965 41.4806 29.7352C38.5093 26.8739 33.6472 26.8739 30.6758 29.7352C27.7045 32.5965 27.7045 37.2785 30.6758 40.1398C33.6472 43.0011 38.5093 43.0011 41.4806 40.1398Z" stroke="white" stroke-width="2" stroke-linecap="round" stroke-linejoin="round"/>
</svg>
