<svg width="22" height="22" viewBox="0 0 22 22" fill="none" xmlns="http://www.w3.org/2000/svg">
<path d="M18.8833 3.75834V5.775C18.8833 6.50834 18.425 7.425 17.9666 7.88334L14.025 11.3667C13.475 11.825 13.1083 12.7417 13.1083 13.475V17.4167C13.1083 17.9667 12.7416 18.7 12.2833 18.975L11 19.8C9.80831 20.5333 8.15831 19.7083 8.15831 18.2417V13.3833C8.15831 12.7417 7.79164 11.9167 7.42498 11.4583L6.99414 11.0092C6.70998 10.7067 6.65498 10.2483 6.88414 9.89084L11.5775 2.35584C11.7425 2.09 12.0358 1.925 12.3566 1.925H17.05C18.0583 1.925 18.8833 2.75 18.8833 3.75834Z" fill="#3EABF8"/>
<path d="M9.48753 3.3275L6.23337 8.54334C5.9217 9.0475 5.2067 9.12084 4.7942 8.69L3.9417 7.79167C3.48337 7.33334 3.1167 6.50834 3.1167 5.95834V3.85C3.1167 2.75 3.9417 1.925 4.95003 1.925H8.70837C9.42337 1.925 9.86337 2.71334 9.48753 3.3275Z" fill="#3EABF8"/>
</svg>
