<svg width="114" height="28" viewBox="0 0 114 28" fill="none" xmlns="http://www.w3.org/2000/svg">
<path fill-rule="evenodd" clip-rule="evenodd" d="M111.834 6.13915C111.678 6.15863 111.519 6.16867 111.357 6.16867C109.314 6.16867 107.658 4.55762 107.658 2.57028C107.658 2.1755 107.723 1.79556 107.844 1.44016C107.286 1.31539 106.672 1.25301 106 1.25301H98.5062V27.759H105.814C108.075 27.759 109.654 27.0763 110.552 25.7108C111.461 24.3454 111.915 22.4076 111.915 19.8976V7.48795C111.915 7.01146 111.888 6.56186 111.834 6.13915ZM104.932 23.0753H103.987V5.89157H104.591C105.334 5.89157 105.825 6.02209 106.062 6.28313C106.31 6.53414 106.434 7.10141 106.434 7.98494V21.6596C106.434 22.6034 105.933 23.0753 104.932 23.0753Z" fill="white"/>
<path fill-rule="evenodd" clip-rule="evenodd" d="M0 1.25301V27.759H5.3573V17.262H7.57144C9.0785 17.262 10.2398 16.9357 11.0552 16.2831C11.881 15.6305 12.4539 14.7118 12.7739 13.5271C13.0939 12.3323 13.2539 10.9317 13.2539 9.3253C13.2539 7.65863 13.0629 6.22289 12.681 5.01807C12.2991 3.81325 11.6643 2.88454 10.7765 2.23193C9.89913 1.57932 8.7069 1.25301 7.19984 1.25301H0ZM5.66697 12.503H5.3573V6.08735H5.96116C6.78694 6.08735 7.30822 6.36345 7.52499 6.91566C7.75208 7.45783 7.86563 8.23092 7.86563 9.23494C7.86563 10.3092 7.75208 11.1225 7.52499 11.6747C7.2979 12.2269 6.67856 12.503 5.66697 12.503Z" fill="white"/>
<path fill-rule="evenodd" clip-rule="evenodd" d="M14.988 1.25301V27.759H20.5002V15.6657C21.2227 15.6657 21.744 15.761 22.064 15.9518C22.3943 16.1325 22.5595 16.6094 22.5595 17.3825V27.759H27.9323V17.7289C27.9323 16.6847 27.7568 15.8363 27.4058 15.1837C27.0652 14.5211 26.4665 14.1044 25.6097 13.9337C26.6523 13.6024 27.3594 13.005 27.731 12.1416C28.1129 11.2781 28.3039 10.1235 28.3039 8.67771C28.3039 7.18173 28.18 5.88153 27.9323 4.77711C27.6949 3.66265 27.22 2.7992 26.5078 2.18675C25.7955 1.56426 24.7427 1.25301 23.3491 1.25301H14.988ZM21.8472 11.0723H20.5311V6.16265H21.8008C22.255 6.16265 22.5647 6.32329 22.7298 6.64458C22.895 6.96586 22.9775 7.64357 22.9775 8.67771C22.9775 10.2741 22.6008 11.0723 21.8472 11.0723Z" fill="white"/>
<path fill-rule="evenodd" clip-rule="evenodd" d="M31.6019 26.0873C32.758 27.3624 34.425 28 36.603 28C38.7811 28 40.443 27.3624 41.5887 26.0873C42.7448 24.8022 43.3229 22.9498 43.3229 20.5301V7.93976C43.3229 5.67068 42.75 3.9488 41.6042 2.7741C40.4688 1.5994 38.8017 1.01205 36.603 1.01205C34.4044 1.01205 32.7322 1.5994 31.5864 2.7741C30.4509 3.9488 29.8832 5.67068 29.8832 7.93976V20.5301C29.8832 22.9498 30.4561 24.8022 31.6019 26.0873ZM37.8882 20.7861C37.8882 22.3424 37.4753 23.1205 36.6495 23.1205C36.1747 23.1205 35.834 22.9448 35.6276 22.5934C35.4211 22.2319 35.3179 21.6396 35.3179 20.8163V7.89458C35.3179 6.55924 35.7721 5.89157 36.6805 5.89157C37.4856 5.89157 37.8882 6.54418 37.8882 7.8494V20.7861Z" fill="white"/>
<path d="M54.533 26.2078C55.7407 27.4026 57.3303 28 59.3019 28C61.4696 28 63.1573 27.4779 64.365 26.4337C65.5727 25.3795 66.1766 23.6877 66.1766 21.3584V16.3434H60.6954V21.1175C60.6954 21.7098 60.5973 22.1918 60.4012 22.5633C60.2154 22.9347 59.8903 23.1205 59.4258 23.1205C59.0129 23.1205 58.6929 22.9699 58.4658 22.6687C58.249 22.3675 58.1406 21.8504 58.1406 21.1175V7.8494C58.1406 7.25703 58.2284 6.78514 58.4038 6.43373C58.5793 6.07229 58.92 5.89157 59.4258 5.89157C59.8593 5.89157 60.1793 6.03213 60.3857 6.31325C60.5922 6.58434 60.6954 7.11647 60.6954 7.90964V11.8253H66.1146V7.24699C66.1146 5.85141 65.8256 4.69679 65.2476 3.78313C64.6695 2.85944 63.8747 2.16667 62.8631 1.70482C61.8618 1.24297 60.716 1.01205 59.4258 1.01205C57.0619 1.01205 55.3536 1.69478 54.3007 3.06024C53.2582 4.4257 52.7369 6.39357 52.7369 8.96385V21.1928C52.7369 23.3414 53.3356 25.0131 54.533 26.2078Z" fill="white"/>
<path fill-rule="evenodd" clip-rule="evenodd" d="M69.8926 1.25301L67.2604 27.759H72.5558L72.8964 23.4819H76.1789L76.566 27.759H81.722L79.1363 1.25301H69.8926ZM75.7609 19.25H73.2835L74.3209 5.77108H74.5686L75.7609 19.25Z" fill="white"/>
<path fill-rule="evenodd" clip-rule="evenodd" d="M83.3942 1.25301V27.759H88.9064V15.6657C89.6289 15.6657 90.1502 15.761 90.4702 15.9518C90.8005 16.1325 90.9657 16.6094 90.9657 17.3825V27.759H96.3385V17.7289C96.3385 16.6847 96.163 15.8363 95.812 15.1837C95.4714 14.5211 94.8727 14.1044 94.0159 13.9337C95.0585 13.6024 95.7656 13.005 96.1372 12.1416C96.5191 11.2781 96.7101 10.1235 96.7101 8.67771C96.7101 7.18173 96.5862 5.88153 96.3385 4.77711C96.1011 3.66265 95.6262 2.7992 94.914 2.18675C94.2017 1.56426 93.1489 1.25301 91.7553 1.25301H83.3942ZM90.2534 11.0723H88.9373V6.16265H90.207C90.6612 6.16265 90.9708 6.32329 91.136 6.64458C91.3012 6.96586 91.3837 7.64357 91.3837 8.67771C91.3837 10.2741 91.007 11.0723 90.2534 11.0723Z" fill="white"/>
<path d="M114 2.57028C114 3.98981 112.817 5.14056 111.357 5.14056C109.898 5.14056 108.715 3.98981 108.715 2.57028C108.715 1.15075 109.898 0 111.357 0C112.817 0 114 1.15075 114 2.57028Z" fill="#FF0000"/>
</svg>
