<svg width="14" height="14" viewBox="0 0 14 14" fill="none" xmlns="http://www.w3.org/2000/svg">
<path fill-rule="evenodd" clip-rule="evenodd" d="M6.3 1.4C3.5938 1.4 1.4 3.5938 1.4 6.3C1.4 9.0062 3.5938 11.2 6.3 11.2C9.0062 11.2 11.2 9.0062 11.2 6.3C11.2 3.5938 9.0062 1.4 6.3 1.4ZM0 6.3C0 2.82061 2.82061 0 6.3 0C9.77939 0 12.6 2.82061 12.6 6.3C12.6 9.77939 9.77939 12.6 6.3 12.6C2.82061 12.6 0 9.77939 0 6.3Z" fill="black"/>
<path fill-rule="evenodd" clip-rule="evenodd" d="M9.76003 9.76003C10.0334 9.48666 10.4766 9.48666 10.75 9.76003L13.795 12.805C14.0683 13.0784 14.0683 13.5216 13.795 13.795C13.5216 14.0683 13.0784 14.0683 12.805 13.795L9.76003 10.75C9.48666 10.4766 9.48666 10.0334 9.76003 9.76003Z" fill="black"/>
</svg>
