<svg width="18" height="20" viewBox="0 0 18 20" fill="none" xmlns="http://www.w3.org/2000/svg">
<path d="M17.82 9.1125V4.7225C17.82 3.9025 17.2 2.9725 16.43 2.6625L10.86 0.3825C9.61 -0.1275 8.2 -0.1275 6.95 0.3825L1.38 2.6625C0.62 2.9725 0 3.9025 0 4.7225V9.1125C0 14.0025 3.55 18.5825 8.4 19.9225C8.73 20.0125 9.09 20.0125 9.42 19.9225C14.27 18.5825 17.82 14.0025 17.82 9.1125ZM9.66 10.8625V13.4925C9.66 13.9025 9.32 14.2425 8.91 14.2425C8.5 14.2425 8.16 13.9025 8.16 13.4925V10.8625C7.15 10.5425 6.41 9.6025 6.41 8.4925C6.41 7.1125 7.53 5.9925 8.91 5.9925C10.29 5.9925 11.41 7.1125 11.41 8.4925C11.41 9.6125 10.67 10.5425 9.66 10.8625Z" fill="#3EABF8"/>
</svg>
