<svg width="18" height="19" viewBox="0 0 18 19" fill="none" xmlns="http://www.w3.org/2000/svg">
<path d="M17.5021 9.25693C17.5021 4.71562 13.7891 1.14016 9.25106 1.31147C4.71298 1.48278 0.999999 5.33856 1 9.87988C1 14.4212 4.71298 17.9966 9.25106 17.8253C13.7891 17.654 17.5021 13.7982 17.5021 9.25693ZM11.5861 11.817L6.91601 7.31984L11.5861 11.817ZM11.5861 7.14354L6.91601 11.9933L11.5861 7.14354Z" fill="#F8374B"/>
<path d="M11.5861 11.817L6.91601 7.31984M11.5861 7.14354L6.91601 11.9933M17.5021 9.25693C17.5021 4.71562 13.7891 1.14016 9.25106 1.31147C4.71298 1.48278 0.999999 5.33856 1 9.87988C1 14.4212 4.71298 17.9966 9.25106 17.8253C13.7891 17.654 17.5021 13.7982 17.5021 9.25693Z" stroke="white" stroke-linecap="round" stroke-linejoin="round"/>
</svg>
