<svg width="19" height="19" viewBox="0 0 19 19" fill="none" xmlns="http://www.w3.org/2000/svg">
<path d="M13.4872 0H5.52225C2.06253 0 0 2.0615 0 5.5195V13.471C0 16.9385 2.06253 19 5.52225 19H13.4777C16.9374 19 19 16.9385 19 13.4805V5.5195C19.0095 2.0615 16.9469 0 13.4872 0ZM6.75787 14.155C6.75787 14.421 6.54876 14.63 6.28263 14.63H3.63081C3.36468 14.63 3.15557 14.421 3.15557 14.155V9.766C3.15557 9.1675 3.64031 8.683 4.23911 8.683H6.28263C6.54876 8.683 6.75787 8.892 6.75787 9.158V14.155ZM11.3011 14.155C11.3011 14.421 11.092 14.63 10.8259 14.63H8.17407C7.90794 14.63 7.69884 14.421 7.69884 14.155V5.453C7.69884 4.8545 8.18358 4.37 8.78238 4.37H10.2271C10.8259 4.37 11.3106 4.8545 11.3106 5.453V14.155H11.3011ZM15.8539 14.155C15.8539 14.421 15.6448 14.63 15.3787 14.63H12.7268C12.4607 14.63 12.2516 14.421 12.2516 14.155V10.7825C12.2516 10.5165 12.4607 10.3075 12.7268 10.3075H14.7704C15.3692 10.3075 15.8539 10.792 15.8539 11.3905V14.155Z" fill="#CACACA"/>
</svg>
