<svg width="13" height="13" viewBox="0 0 13 13" fill="none" xmlns="http://www.w3.org/2000/svg">
<path d="M11.2874 2.80179C10.4249 2.71608 9.56243 2.65179 8.69457 2.60358V2.59822L8.57671 1.90179C8.49636 1.40893 8.3785 0.669647 7.12493 0.669647H5.72136C4.47314 0.669647 4.35528 1.37679 4.26957 1.89643L4.15707 2.58215C3.65886 2.61429 3.16064 2.64643 2.66243 2.69465L1.56957 2.80179C1.34457 2.82322 1.18386 3.02143 1.20528 3.24108C1.22671 3.46072 1.41957 3.62143 1.64457 3.6L2.73743 3.49286C5.54457 3.21429 8.37314 3.32143 11.2124 3.60536C11.2285 3.60536 11.2392 3.60536 11.2553 3.60536C11.4589 3.60536 11.6356 3.45 11.6571 3.24108C11.6731 3.02143 11.5124 2.82322 11.2874 2.80179Z" fill="#909090"/>
<path d="M10.3017 4.36071C10.1731 4.22678 9.99636 4.15178 9.81422 4.15178H3.04279C2.86065 4.15178 2.67851 4.22678 2.55529 4.36071C2.43208 4.49464 2.36244 4.67678 2.37315 4.86428L2.70529 10.3607C2.76422 11.175 2.83922 12.1929 4.70886 12.1929H8.14815C10.0178 12.1929 10.0928 11.1804 10.1517 10.3607L10.4839 4.86964C10.4946 4.67678 10.4249 4.49464 10.3017 4.36071ZM7.31779 9.50892H5.53386C5.31422 9.50892 5.13208 9.32678 5.13208 9.10714C5.13208 8.88749 5.31422 8.70535 5.53386 8.70535H7.31779C7.53744 8.70535 7.71958 8.88749 7.71958 9.10714C7.71958 9.32678 7.53744 9.50892 7.31779 9.50892ZM7.76779 7.36607H5.08922C4.86958 7.36607 4.68744 7.18392 4.68744 6.96428C4.68744 6.74464 4.86958 6.56249 5.08922 6.56249H7.76779C7.98744 6.56249 8.16958 6.74464 8.16958 6.96428C8.16958 7.18392 7.98744 7.36607 7.76779 7.36607Z" fill="#909090"/>
</svg>
